<svg xmlns="http://www.w3.org/2000/svg" version="1.1" xmlns:xlink="http://www.w3.org/1999/xlink" viewBox="0 0 200 200"><rect width="200" height="200" fill="url('#gradient')"></rect><defs><linearGradient id="gradient" gradientTransform="rotate(45 0.5 0.5)"><stop offset="0%" stop-color="#ffddf3"></stop><stop offset="100%" stop-color="#ffddf3"></stop></linearGradient></defs><g><g fill="#ee7ec5" transform="matrix(4.612612612612613,0,0,4.612612612612613,8.372164428771086,133.88327169418335)" stroke="#ee7ec5" stroke-width="0.2"><path d="M12.24-14.22L12.24-11.57L7.97-11.57L7.97 0L4.54 0L4.54-11.57L0.35-11.57L0.35-14.22L12.24-14.22ZM17.00-10.57L17.00 0L13.70 0L13.70-10.57L17.00-10.57ZM13.51-13.29L13.51-13.29Q13.51-13.99 14.01-14.44Q14.52-14.89 15.33-14.89Q16.14-14.89 16.65-14.44Q17.16-13.99 17.16-13.29Q17.16-12.59 16.65-12.14Q16.14-11.69 15.33-11.69Q14.52-11.69 14.01-12.14Q13.51-12.59 13.51-13.29ZM24.14 0.20L24.14 0.20Q21.71 0.20 20.21-1.25Q18.70-2.71 18.70-5.03L18.70-5.03L18.70-5.30Q18.70-6.92 19.30-8.16Q19.90-9.40 21.05-10.08Q22.21-10.76 23.79-10.76L23.79-10.76Q26.02-10.76 27.30-9.38Q28.59-8.00 28.59-5.53L28.59-5.53L28.59-4.25L22.05-4.25Q22.23-3.36 22.82-2.85Q23.42-2.34 24.37-2.34L24.37-2.34Q25.93-2.34 26.81-3.44L26.81-3.44L28.31-1.66Q27.70-0.81 26.57-0.31Q25.44 0.20 24.14 0.20ZM23.77-8.22L23.77-8.22Q22.32-8.22 22.05-6.31L22.05-6.31L25.37-6.31L25.37-6.56Q25.39-7.35 24.97-7.79Q24.55-8.22 23.77-8.22ZM29.85-10.57L32.94-10.57L33.05-9.33Q34.14-10.76 36.06-10.76L36.06-10.76Q37.71-10.76 38.53-9.78Q39.35-8.79 39.38-6.81L39.38-6.81L39.38 0L36.07 0L36.07-6.67Q36.07-7.47 35.75-7.85Q35.43-8.22 34.58-8.22L34.58-8.22Q33.61-8.22 33.14-7.46L33.14-7.46L33.14 0L29.85 0L29.85-10.57Z"></path></g></g></svg>